<svg width="25" height="24" viewBox="0 0 25 24" fill="none" xmlns="http://www.w3.org/2000/svg">
<g opacity="0.5">
<path d="M3.32691 19.7527L7.73738 15.3422C6.67553 13.9286 6.10232 12.208 6.10425 10.44C6.10425 5.92406 9.77831 2.25 14.2943 2.25C18.8102 2.25 22.4843 5.92406 22.4843 10.44C22.4843 14.9559 18.8102 18.63 14.2943 18.63C12.5263 18.6319 10.8056 18.0587 9.39206 16.9969L4.98159 21.4073C4.75834 21.6069 4.46715 21.7135 4.16781 21.7051C3.86847 21.6967 3.5837 21.574 3.37195 21.3623C3.16021 21.1506 3.03756 20.8658 3.02918 20.5664C3.0208 20.2671 3.12733 19.9759 3.32691 19.7527ZM20.1443 10.44C20.1443 9.28298 19.8012 8.15194 19.1583 7.18992C18.5155 6.22789 17.6019 5.47808 16.533 5.03531C15.464 4.59253 14.2878 4.47668 13.153 4.70241C12.0182 4.92813 10.9758 5.48529 10.1577 6.30343C9.33954 7.12156 8.78238 8.16393 8.55666 9.29872C8.33093 10.4335 8.44678 11.6098 8.88955 12.6787C9.33233 13.7476 10.0821 14.6613 11.0442 15.3041C12.0062 15.9469 13.1372 16.29 14.2943 16.29C15.8452 16.2881 17.3321 15.6712 18.4288 14.5745C19.5255 13.4778 20.1424 11.9909 20.1443 10.44Z" fill="#283949"/>
</g>
</svg>
