<svg width="36" height="36" viewBox="0 0 36 36" fill="none" xmlns="http://www.w3.org/2000/svg">
<g clip-path="url(#clip0)">
<path d="M21.6932 16.1709L18.9564 20.8064C18.6508 20.7273 18.3304 20.685 18.0001 20.685C15.9001 20.685 14.1978 22.3873 14.1978 24.4873C14.1978 26.5872 15.9001 28.2896 18.0001 28.2896C20.1 28.2896 21.8024 26.5872 21.8024 24.4873C21.8024 23.4802 21.4101 22.5651 20.7708 21.8848L23.5743 17.1367C22.9862 16.7527 22.3566 16.4284 21.6932 16.1709Z" fill="#FF9027"/>
<path d="M34.1135 17.6253L31.84 18.9379L30.7849 17.1103L33.0556 15.7993C33.0555 15.7992 33.0555 15.7991 33.0554 15.7989C31.7062 13.7561 29.9532 12.0038 27.911 10.6546C27.911 10.6545 27.9109 10.6545 27.9108 10.6544L26.605 12.9162L24.7774 11.861L26.0848 9.59656C23.9484 8.51964 21.5701 7.85628 19.0553 7.70996V10.4658H16.9449V7.70996C14.43 7.85628 12.0517 8.51964 9.91534 9.59656L11.2227 11.861L9.39513 12.9162L8.08931 10.6544C8.08924 10.6545 8.08917 10.6545 8.0891 10.6546C6.04697 12.0038 4.29396 13.7561 2.94473 15.7989C2.94466 15.7991 2.94459 15.7991 2.94452 15.7993L5.21527 17.1103L4.16009 18.9379L1.88667 17.6253C0.809606 19.7616 0.146319 22.1399 0 24.6547H5.70502C6.24246 18.3426 11.5514 13.3706 18 13.3706C24.4486 13.3706 29.7575 18.3426 30.295 24.6547H36C35.8537 22.1399 35.1904 19.7616 34.1135 17.6253Z" fill="#1E3747"/>
</g>
<defs>
<clipPath id="clip0">
<rect width="36" height="36" fill="white"/>
</clipPath>
</defs>
</svg>
